<svg width="116" height="111" viewBox="0 0 116 111" fill="none" xmlns="http://www.w3.org/2000/svg">
	<g filter="url(#filter0_d_0_4)">
	<path d="M106.922 69.1753C104.841 63.7734 103.139 56.4194 103.139 43.2322H57.744H12.3493C12.3493 56.4194 10.647 63.7688 8.5664 69.1753C6.48581 74.5788 12.7881 79.2212 17.2292 82.6424C34.4792 95.9507 35.9924 109.947 57.744 109.947C79.4957 109.947 81.0088 95.9507 98.2588 82.6424C102.7 79.2166 109.002 74.5773 106.922 69.1753Z" fill="#E6E6E6"/>
	<path d="M106.922 69.1753C104.841 63.7734 103.139 56.4194 103.139 43.2322H98.5993C98.5993 56.4194 100.302 63.7688 102.382 69.1753C104.463 74.5788 98.1605 79.2212 93.7193 82.6424C77.0912 95.4725 75.0787 108.934 55.4743 109.888C56.2082 109.923 56.9587 109.947 57.744 109.947C79.4957 109.947 81.0088 95.9507 98.2588 82.6424C102.7 79.2166 109.002 74.5773 106.922 69.1753Z" fill="#CCCCCC" fill-opacity="0.75"/>
	<circle cx="74.0105" cy="61.9046" r="7.56579" fill="#F5F5F5"/>
	<circle cx="74.0105" cy="61.9046" r="4.53947" fill="#242424"/>
	<circle cx="40.721" cy="61.9046" r="7.56579" fill="#F5F5F5"/>
	<circle cx="40.721" cy="61.9046" r="4.53947" fill="#242424"/>
	<path d="M113.406 2.13487C112.696 1.40704 111.721 1 110.705 1C99.43 1 80.5034 8.21474 68.5601 19.0898C65.5368 17.2816 61.8401 16.1316 57.744 16.1316C53.6479 16.1316 49.9498 17.2816 46.925 19.0898C34.9801 8.21474 16.055 1 4.78351 1C3.76666 1 2.79219 1.40704 2.08252 2.13789C1.36982 2.8627 0.982453 3.84474 1.00061 4.85704C1.18068 13.7968 5.32673 24.5992 8.97949 34.1397C10.2036 37.3234 11.3809 44.9376 12.3493 47.7747C52.448 47.0272 50.1782 83.7213 50.1782 95.5724H65.334C65.334 83.7243 63.0673 47.0454 103.139 47.7747V43.2353C104.109 40.3951 105.289 37.3173 106.512 34.1306C110.167 24.5992 114.31 13.7968 114.487 4.85704C114.506 3.8402 114.118 2.86118 113.406 2.13487Z" fill="#EB9E4A"/>
	<path d="M66.9682 20.5122C67.5039 20.0295 68.0653 19.5589 68.6206 19.0928C65.7214 17.2997 61.4331 16.1346 57.744 16.1346C56.9708 16.1346 56.2172 16.1876 55.4743 16.2663C58.6655 16.6022 64.5184 19.0444 66.9682 20.5122Z" fill="#B37035"/>
	<path d="M113.406 2.13487C112.696 1.40704 111.721 1 110.705 1C109.653 1 108.518 1.08322 107.341 1.20579C107.911 1.39342 108.441 1.69757 108.866 2.13487C109.579 2.86118 109.966 3.8402 109.948 4.85704C109.771 13.7937 105.628 24.5992 101.972 34.1306C100.748 37.3143 99.5662 40.3951 98.5993 43.2353V47.7747C58.5278 47.0454 60.7945 83.7243 60.7945 95.5724H65.334C65.334 83.7243 63.0673 47.0454 103.139 47.7747V43.2353C104.109 40.3951 105.289 37.3173 106.512 34.1306C110.167 24.5992 114.309 13.7968 114.487 4.85704C114.506 3.8402 114.118 2.86118 113.406 2.13487Z" fill="#DB5E40"/>
	<path d="M43.829 20.5122C44.7339 19.975 45.9081 19.4999 46.9249 19.0928C34.7001 8.06342 15.943 1 4.78348 1C4.37795 1 3.98453 1.08171 3.60776 1.20579C15.0064 2.39816 32.9978 10.6509 43.829 20.5122Z" fill="#DB5E40"/>
	<path d="M57.744 106.921C53.9611 103.138 50.1782 99.7426 50.1782 95.5694C50.1782 91.3976 53.5737 88.0066 57.744 88.0066C61.9143 88.0066 65.3098 91.3976 65.3098 95.5694C65.3098 99.7426 61.5269 103.138 57.744 106.921Z" fill="#242424"/>
	<path d="M106.922 8.5658C103.139 8.5658 84.2243 12.3487 80.4414 19.9145C84.2243 23.6974 99.3559 35.0461 99.3559 35.0461C103.139 27.4803 106.922 12.3487 106.922 8.5658Z" fill="#E77C45"/>
	<path d="M8.56638 8.5658C12.3493 8.5658 31.2637 12.3487 35.0466 19.9145C31.2637 23.6974 16.1322 35.0461 16.1322 35.0461C12.3493 27.4803 8.56638 12.3487 8.56638 8.5658Z" fill="#E77C45"/>
	</g>
	<defs>
	<filter id="filter0_d_0_4" x="0" y="0" width="115.488" height="110.947" filterUnits="userSpaceOnUse" color-interpolation-filters="sRGB">
	<feFlood flood-opacity="0" result="BackgroundImageFix"/>
	<feColorMatrix in="SourceAlpha" type="matrix" values="0 0 0 0 0 0 0 0 0 0 0 0 0 0 0 0 0 0 127 0" result="hardAlpha"/>
	<feOffset/>
	<feGaussianBlur stdDeviation="0.5"/>
	<feColorMatrix type="matrix" values="0 0 0 0 0 0 0 0 0 0 0 0 0 0 0 0 0 0 0.5 0"/>
	<feBlend mode="normal" in2="BackgroundImageFix" result="effect1_dropShadow_0_4"/>
	<feBlend mode="normal" in="SourceGraphic" in2="effect1_dropShadow_0_4" result="shape"/>
	</filter>
	</defs>
	</svg>
